<svg xmlns="http://www.w3.org/2000/svg" width="92" height="24" viewBox="0 0 92 24">
  <g id="Webapp_Left_Nav_-_BC_Logo" data-name="Webapp Left Nav - BC Logo" transform="translate(-1026.126 -485.715)">
    <path id="Path_114" data-name="Path 114" d="M76.776,91.506c5.815,0,13.859,3.237,19.7,3.237,4.165,0,8.229-1.1,10.543-2.717a17.4,17.4,0,0,0,.247-2.922,17.7,17.7,0,0,0-35.393,0,17.418,17.418,0,0,0,.241,2.889A29.127,29.127,0,0,1,76.776,91.506Z" transform="translate(954.473 414.29)" fill="#fff"/>
    <path id="Path_115" data-name="Path 115" d="M295.886,170.863l.7.287,1.552-1.07Z" transform="translate(759.598 328.484)" fill="#e3a82b"/>
    <path id="Path_116" data-name="Path 116" d="M76.16,82.615l-1.839-.64.092-.223,2.071.683.009,0,.273-.153.109-.068-2.259-.95.1-.234,5.041,2.016.166-.068-5-2.409.111-.226,5.3,2.438.073-.037-5.137-2.881.105-.216,7.419,3.991c.061-.111.188-.313.253-.422a65.915,65.915,0,0,0-5.542-4.59A66.269,66.269,0,0,0,83.755,82.2c.114-.141.208-.254.33-.387L77.756,76.3l.17-.172,5.108,4.3L78.3,75.747l.177-.181,5.313,5.076-4.946-5.427.189-.169,4.571,4.839-4.172-5.2.18-.162,5.348,6.435c.138-.118.253-.207.4-.316a65.059,65.059,0,0,0-3.385-6.276,65.383,65.383,0,0,0,4.418,5.6c.155-.086.312-.169.473-.247l-.027-.017-3.748-7.4.223-.1L86.418,78.1,83.806,72l.233-.1,3,6.675-2.53-6.864.239-.086,2.4,6.18-1.9-6.364.228-.083,2.5,7.894,0,.021.006,0c.166-.055.336-.1.506-.149a64.624,64.624,0,0,0-.758-7.035,64.736,64.736,0,0,0,1.962,6.8c.175-.021.352-.039.53-.051l-.006-.008h.022L90.23,78.8l-.673-8.245.243-.007.65,6.6-.112-6.621.255-.009.255,7.3.255-7.3.255.009-.112,6.621.65-6.6.243.007L91.467,78.8l-.013.018h0l0,0h.011c.174.011.347.028.518.048a64.727,64.727,0,0,0,1.959-6.791,64.646,64.646,0,0,0-.757,7.018q.258.067.509.148l2.491-7.866.228.083-1.9,6.364,2.4-6.18.239.086L94.631,78.6l3-6.675.233.1-2.613,6.1,3.105-5.882.223.1-3.735,7.369.006,0c.154.074.3.153.454.235a65.419,65.419,0,0,0,4.4-5.577,65.108,65.108,0,0,0-3.368,6.24q.216.161.422.334l5.285-6.365.18.162-4.173,5.2,4.572-4.839.189.169-4.946,5.427,5.313-5.077.177.181-4.732,4.685,5.108-4.3.17.172L97.649,81.8l0,0c.109.12.214.244.317.371a66.261,66.261,0,0,0,6.207-3.553,65.893,65.893,0,0,0-5.5,4.552c.077.127.2.343.272.474l7.313-3.937.106.217L100.529,83.2l6.072-2.794.111.226-5.656,2.725.108.037,5.755-2.3.1.234-5.349,2.249.1.041,3.565-1.175.537-.371.178.135,1.173-.387.092.222L106.3,82.4l1.466,1.106.47.259a17.974,17.974,0,0,0-34.958.412l.066-.031.215-.1.132-.061Z" transform="translate(953.25 415.537)" fill="#e3a82b"/>
    <path id="Path_117" data-name="Path 117" d="M70.513,174.063a29.84,29.84,0,0,1,4.851-.522c5.815,0,13.859,3.237,19.7,3.237,4.282,0,8.458-1.161,10.734-2.854a17.649,17.649,0,0,0-.222-7.221l-2.433-1.342-2.855,1.98-1.921-.739c-.65.325-4.661,2.977-4.661,2.977l-1.54-1.1-1.652-.323-2.2-1.585-2.527,1.715s-2.819,1.618-2.916,1.618-3.4-2.589-3.4-2.589l-1.522-1.585c-.259.162-1.295.631-1.295.631l-.053.014-1-.306-1.217-.638-3.7,1.657-.066.031a17.64,17.64,0,0,0-.1,6.948Z" transform="translate(955.91 332.596)" fill="#65799e"/>
    <g id="Group_618" data-name="Group 618" transform="translate(1064.709 490.214)">
      <g id="Group_617" data-name="Group 617" transform="translate(0 0)">
        <rect id="Rectangle_1" data-name="Rectangle 1" width="40.934" height="0.491" transform="translate(6.321 19.01)" fill="#e3a82b"/>
        <g id="Group_616" data-name="Group 616" transform="translate(0 0)">
          <path id="Path_2" data-name="Path 2" d="M416.447,106.636c0-.822-.058-1.039-.619-1.084l-.39-.027c-.064-.05-.046-.272.012-.277.673-.059,1.521-.089,2.68-.089a5.265,5.265,0,0,1,2.094.311,1.454,1.454,0,0,1,.947,1.388c0,.8-.524,1.21-1.271,1.521,0,.111.1.144.237.166a1.915,1.915,0,0,1,1.67,1.854c0,1.288-1.072,2.154-3.315,2.154-.361,0-.972-.033-1.5-.033-.548,0-.972.023-1.433.033a.2.2,0,0,1-.025-.278l.224-.033c.66-.1.685-.222.685-1.388Zm1.022,1.476c0,.311.012.333.648.311,1.271-.044,1.957-.378,1.957-1.421,0-1.088-.91-1.5-1.857-1.5a1.708,1.708,0,0,0-.573.067c-.125.033-.175.089-.175.289Zm0,2.575a1.976,1.976,0,0,0,.262,1.21,1.3,1.3,0,0,0,.985.311c1.109,0,1.957-.444,1.957-1.554,0-.877-.5-1.9-2.48-1.9-.673,0-.723.067-.723.289Z" transform="translate(-409.076 -105.159)" fill="#fff"/>
          <path id="Path_3" data-name="Path 3" d="M524.877,115.177c0-1.005-.021-1.166-.649-1.214l-.266-.019c-.064-.038-.042-.209.021-.237.532.019.894.029,1.341.029.426,0,.788-.01,1.32-.029.064.029.085.2.021.237l-.266.019c-.628.047-.649.208-.649,1.214v3.376c0,1.005.021,1.138.649,1.2l.266.028c.064.038.043.208-.021.237-.532-.019-.894-.029-1.32-.029-.447,0-.809.01-1.341.029a.169.169,0,0,1-.021-.237l.266-.028c.628-.066.649-.2.649-1.2Z" transform="translate(-503.483 -112.608)" fill="#fff"/>
          <path id="Path_4" data-name="Path 4" d="M552.581,116.652c0,1,.02,1.138.6,1.185l.319.028c.06.038.04.208-.02.237-.569-.019-.908-.029-1.307-.029s-.748.01-1.386.029a.16.16,0,0,1,0-.237l.359-.028c.569-.047.618-.19.618-1.185v-4.239c0-.294,0-.3-.3-.3h-.549a2.132,2.132,0,0,0-1.227.237,1.725,1.725,0,0,0-.449.654.2.2,0,0,1-.259-.066,9.618,9.618,0,0,0,.379-1.413.262.262,0,0,1,.189,0c.06.3.389.294.848.294h4.04c.538,0,.628-.019.778-.265.05-.019.16-.01.18.028a5.46,5.46,0,0,0-.149,1.441c-.04.076-.209.076-.259.019-.03-.237-.1-.588-.25-.692a2.072,2.072,0,0,0-1.157-.237h-.708c-.3,0-.289.009-.289.322Z" transform="translate(-525.281 -110.689)" fill="#fff"/>
          <path id="Path_5" data-name="Path 5" d="M603.145,115.177c0-1.005-.021-1.166-.65-1.214l-.266-.019c-.064-.038-.042-.209.021-.237.532.019.894.029,1.342.029.426,0,.788-.01,1.32-.029.064.029.086.2.022.237l-.267.019c-.628.047-.649.208-.649,1.214v3.376c0,1.005.021,1.138.649,1.2l.267.028c.064.038.042.208-.022.237-.532-.019-.894-.029-1.32-.029-.447,0-.809.01-1.342.029a.17.17,0,0,1-.021-.237l.266-.028c.628-.066.65-.2.65-1.2Z" transform="translate(-571.57 -112.608)" fill="#fff"/>
          <path id="Path_6" data-name="Path 6" d="M632.348,119.107a4.081,4.081,0,0,1-1.766-.351,3.766,3.766,0,0,1-.306-1.328c.057-.066.226-.085.272-.029a1.956,1.956,0,0,0,1.947,1.413c.951,0,1.415-.522,1.415-1.09,0-.417-.1-.882-.928-1.328l-1.075-.588a2.03,2.03,0,0,1-1.222-1.631c0-.9.837-1.631,2.309-1.631a5.173,5.173,0,0,1,1.053.123,1.791,1.791,0,0,0,.4.057,3.537,3.537,0,0,1,.2,1.157.257.257,0,0,1-.283.028,1.418,1.418,0,0,0-1.539-1.071c-1.109,0-1.347.616-1.347,1.052,0,.55.543.949.962,1.166l.905.474a2.16,2.16,0,0,1,1.415,1.821C634.759,118.4,633.82,119.107,632.348,119.107Z" transform="translate(-596.002 -111.595)" fill="#fff"/>
          <path id="Path_7" data-name="Path 7" d="M674.762,116.931c-.5,0-.516.019-.516.3v1.337c0,1,.052,1.128.63,1.185l.3.028c.062.038.041.208-.02.237-.557-.019-.908-.029-1.311-.029-.444,0-.795.019-1.2.029a.173.173,0,0,1-.021-.237l.175-.028c.578-.095.6-.19.6-1.185v-3.414c0-1-.072-1.157-.609-1.195l-.268-.019c-.062-.038-.041-.209.021-.237.506.01.857.029,1.3.029.4,0,.754-.01,1.2-.029.062.029.082.2.021.237l-.2.019c-.6.057-.619.2-.619,1.195v1.09c0,.294.021.3.516.3h2.952c.5,0,.516-.01.516-.3v-1.09c0-1-.021-1.138-.629-1.195l-.2-.019c-.062-.038-.042-.209.021-.237.475.019.826.029,1.249.029.4,0,.753-.01,1.218-.029.062.029.083.2.021.237l-.216.019c-.6.057-.62.2-.62,1.195v3.414c0,1,.021,1.119.62,1.185l.248.028c.062.038.041.208-.021.237-.5-.019-.847-.029-1.249-.029-.423,0-.795.01-1.249.029a.173.173,0,0,1-.021-.237l.2-.028c.629-.095.629-.19.629-1.185v-1.337c0-.285-.021-.3-.516-.3Z" transform="translate(-632.72 -112.608)" fill="#fff"/>
          <path id="Path_8" data-name="Path 8" d="M368.267,172.419a5.059,5.059,0,0,1,3.138-.973,9.089,9.089,0,0,1,2.057.275.886.886,0,0,0,.325.046c.012.263.07.984.163,1.683a.248.248,0,0,1-.314.023,2.1,2.1,0,0,0-2.382-1.672,3.155,3.155,0,0,0-3.289,3.48,3.4,3.4,0,0,0,3.451,3.732,2.474,2.474,0,0,0,2.429-1.637.247.247,0,0,1,.3.046,4.257,4.257,0,0,1-.558,1.568,2.388,2.388,0,0,0-.407.114,6.926,6.926,0,0,1-1.836.264,5.148,5.148,0,0,1-2.894-.767,3.675,3.675,0,0,1-1.65-3.148A3.783,3.783,0,0,1,368.267,172.419Z" transform="translate(-366.803 -162.921)" fill="#fff"/>
          <path id="Path_9" data-name="Path 9" d="M426.915,185.126a3.385,3.385,0,0,1,3.585-3.347,3.219,3.219,0,0,1,3.494,3.252,3.342,3.342,0,0,1-3.494,3.309A3.3,3.3,0,0,1,426.915,185.126Zm6.073.2c0-1.565-.735-3.253-2.659-3.253a2.425,2.425,0,0,0-2.407,2.75c0,1.4.725,3.224,2.709,3.224C431.839,188.047,432.987,187.194,432.987,185.325Z" transform="translate(-419.095 -171.925)" fill="#fff"/>
          <path id="Path_10" data-name="Path 10" d="M529.679,185.145a6.386,6.386,0,0,0-.193-1.963.65.65,0,0,0-.508-.2l-.254-.019a.163.163,0,0,1,.02-.228c.386.019.763.029,1.159.029.427,0,.7-.01,1.068-.028a.156.156,0,0,1,.021.227l-.244.019a.608.608,0,0,0-.508.228,7.911,7.911,0,0,0-.142,1.934v1.071a3.15,3.15,0,0,1-.712,2.266,2.787,2.787,0,0,1-1.942.692,3.039,3.039,0,0,1-1.9-.521,2.606,2.606,0,0,1-.793-2.238v-2.238c0-.986-.02-1.147-.61-1.195l-.254-.019c-.061-.038-.041-.2.02-.228.509.019.854.029,1.261.029s.752-.01,1.25-.028c.061.028.082.189.021.227l-.244.019c-.59.047-.61.209-.61,1.195v2.048c0,1.527.508,2.532,2.064,2.532,1.474,0,2.033-1.081,2.033-2.522Z" transform="translate(-503.418 -172.759)" fill="#fff"/>
          <path id="Path_11" data-name="Path 11" d="M653.177,183.625c0-.709-.045-.891-.551-.929l-.36-.034c-.041-.037-.063-.229.011-.234.607-.045,1.371-.076,2.416-.076a4.948,4.948,0,0,1,1.888.268,1.258,1.258,0,0,1,.854,1.2c0,.689-.472,1.044-1.146,1.312,0,.1.09.124.213.144a1.685,1.685,0,0,1,1.506,1.6c0,1.111-.967,1.858-2.989,1.858-.326,0-.877-.029-1.349-.029-.494,0-.876.019-1.292.029a.166.166,0,0,1-.023-.239l.2-.029c.6-.086.618-.192.618-1.2Zm.922,1.273c0,.268.011.287.584.268,1.146-.038,1.764-.326,1.764-1.226,0-.939-.82-1.293-1.674-1.293a1.6,1.6,0,0,0-.517.058c-.113.029-.157.077-.157.249Zm0,2.222a1.646,1.646,0,0,0,.236,1.044,1.207,1.207,0,0,0,.888.268c1,0,1.764-.383,1.764-1.341,0-.757-.45-1.638-2.236-1.638-.607,0-.652.057-.652.249Z" transform="translate(-615.099 -172.423)" fill="#fff"/>
          <g id="Group_3" data-name="Group 3" transform="translate(13.381 1.031)">
            <g id="Group_2" data-name="Group 2">
              <path id="Path_12" data-name="Path 12" d="M476.05,119.324l-.266-.023c-.054-.006-.1-.012-.147-.02-.389-.068-.545-.411-.729-.729l-.92-1.585c-.159-.264-.33-.62-.693-.67.943-.112,1.8-.65,1.8-1.575,0-1.067-1.069-1.544-2.148-1.544-.648,0-1.238.017-1.9.017-.364,0-.8-.017-1.16-.017-.2,0-.2.041-.2.152,0,.165.07.119.284.131.768.043.739.184.739.835v4.156c0,.595.052.772-.58.828l-.152.016-.268.027a.169.169,0,0,0,.021.237l.395-.015c.35-.01.7-.037,1.049-.037s.688.027,1.034.037h0l.394.013a.169.169,0,0,0,.021-.237l-.269-.025-.15-.014c-.638-.043-.6-.221-.6-.83v-1.565c0-.091-.012-.335.057-.407s.159-.051.25-.051c.864,0,.852.082,1.262.793l1.114,1.981c.091.153.159.345.387.345h.968l.392.013A.169.169,0,0,0,476.05,119.324Zm-3.88-3.116c-.193,0-.58.071-.58-.183v-1.819c0-.711.023-.813.887-.813,1.011,0,1.637.508,1.637,1.443a1.189,1.189,0,0,1-.523,1.036A2.366,2.366,0,0,1,472.169,116.208Z" transform="translate(-469.665 -113.177)" fill="#fff"/>
            </g>
          </g>
          <path id="Path_13" data-name="Path 13" d="M483.919,184.364c0-1-.021-1.148-.685-1.195l-.264-.019c-.063-.038-.042-.208.021-.237.591.019.95.029,1.372.029s.77-.01,1.3-.028c.063.028.084.2.021.237l-.253.019c-.622.047-.643.2-.643,1.195v3.3c0,.6.032.844.221,1.024.116.1.317.218,1.15.218a3.035,3.035,0,0,0,1.287-.123,2.038,2.038,0,0,0,.7-.939c.064-.047.264-.01.264.057a7.025,7.025,0,0,1-.443,1.327c-.538-.019-1.54-.028-2.627-.028h-.971c-.443,0-.78.01-1.372.028a.17.17,0,0,1-.021-.237l.317-.028c.612-.057.633-.19.633-1.185Z" transform="translate(-467.824 -172.913)" fill="#fff"/>
          <path id="Path_14" data-name="Path 14" d="M701.58,184.383c0-1.005-.021-1.166-.632-1.214l-.259-.019c-.062-.038-.041-.208.021-.237.517.019.87.029,1.3.029.414,0,.766-.01,1.285-.028.062.028.083.2.02.237l-.259.019c-.611.047-.632.209-.632,1.214v3.376c0,1.005.021,1.138.632,1.2l.259.028c.062.038.041.208-.02.237-.518-.019-.87-.028-1.285-.028-.435,0-.787.01-1.3.028a.172.172,0,0,1-.021-.237l.259-.028c.611-.066.632-.2.632-1.2Z" transform="translate(-657.222 -172.913)" fill="#fff"/>
          <path id="Path_15" data-name="Path 15" d="M588.66,188.9c-.053-.006-.152-.013-.152-.013a.406.406,0,0,1-.284-.11c-.134-.141-.123-.543-.123-.7v-4.155c0-.181-.045-.573.09-.714a.505.505,0,0,1,.332-.094h0c.076-.006.078-.006.144-.009l.266-.019c.064-.038.042-.209-.021-.237-.142,0-.272,0-.395.007h-1.132c-.123,0-.235,0-.3.131l-2.306,4.749-2.037-4.588c-.067-.161-.078-.292-.291-.292h-1.178c-.123,0-.258,0-.4-.007-.064.028-.086.2-.021.237l.266.019.154.011c.442.028.469.125.429.585l-.347,4.457c-.03.447-.055.684-.529.728l-.155.018-.266.028a.169.169,0,0,0,.021.237l.39-.012c.24-.012.485-.033.73-.033.264,0,.528.025.793.035h0l.394.013a.169.169,0,0,0,.021-.237l-.266-.029-.149-.013c-.684-.046-.669-.524-.626-1.108l.325-4.145h.078l2.205,5.1c.022.07.056.191.168.191s.134-.11.168-.181l2.485-5.232h.079v4.558c0,.181.023.553-.168.694a1.408,1.408,0,0,1-.423.117c-.044.007-.091.013-.144.019l-.266.028a.169.169,0,0,0,.021.237l.389-.013c.361-.01.727-.036,1.094-.036.264,0,.78.025.78.025.123,0,.263.017.405.022a.169.169,0,0,0,.021-.237Z" transform="translate(-552.58 -172.854)" fill="#fff"/>
          <path id="Path_19" data-name="Path 19" d="M732.588,188.343l-.036-.028c-.053-.006-.1-.012-.145-.019-.415-.091-.576-.585-.73-.937l-2.135-4.994c-.021-.06-.064-.189-.148-.189-.117,0-.148.139-.18.219l-2.039,4.985a3.3,3.3,0,0,1-.4.786.588.588,0,0,1-.388.142l-.17.017-.251.025a.17.17,0,0,0,.021.237l.394-.014c.279,0,.558-.039.837-.039.235,0,.47.025.7.035l.395.014a.17.17,0,0,0,.021-.237l-.266-.028-.145-.014c-.245-.027-.551-.07-.551-.337a1.63,1.63,0,0,1,.148-.547l.317-.746c.159-.358.1-.4.518-.4H729.8c.507,0,.433,0,.655.508l.338.756a1.629,1.629,0,0,1,.148.488c0,.25-.276.266-.534.288l-.16.013-.256.018a.169.169,0,0,0,.022.237l.394-.015c.3-.011.6-.034.893-.034.37,0,.74.025,1.11.035h0c.122,0,.019.008.16.013A.17.17,0,0,0,732.588,188.343Zm-2.8-2.347h-1.246c-.044,0-.39.04-.39-.06a.5.5,0,0,1,.033-.121l.748-1.83c.021-.05.1-.3.184-.3.065,0,.152.261.174.3l.736,1.709c0,.02.076.181.076.221C730.106,186.027,729.857,186,729.792,186Z" transform="translate(-679.209 -172.27)" fill="#fff"/>
        </g>
      </g>
    </g>
  </g>
</svg>
